<svg width="16" height="16" viewBox="0 0 16 16" fill="none" xmlns="http://www.w3.org/2000/svg">
<g clip-path="url(#clip0_1_91)">
<rect width="16" height="16" rx="1.6" fill="#CC2633"/>
<g clip-path="url(#clip1_1_91)">
<path fill-rule="evenodd" clip-rule="evenodd" d="M4.58667 2.36444C4.29198 2.36444 4.00937 2.4815 3.80099 2.68988C3.59262 2.89825 3.47556 3.18087 3.47556 3.47555V12.3644C3.47556 12.6591 3.59262 12.9417 3.80099 13.1501C4.00937 13.3585 4.29198 13.4756 4.58667 13.4756H10.6978C11.1398 13.4756 11.5637 13.3 11.8763 12.9874C12.1889 12.6748 12.3644 12.2509 12.3644 11.8089V4.03111C12.3644 3.58908 12.1889 3.16516 11.8763 2.8526C11.5637 2.54004 11.1398 2.36444 10.6978 2.36444H4.58667ZM6.80889 3.47555H4.58667V12.3644H10.6978C10.8451 12.3644 10.9864 12.3059 11.0906 12.2017C11.1948 12.0975 11.2533 11.9562 11.2533 11.8089V4.03111C11.2533 3.88376 11.1948 3.74246 11.0906 3.63827C10.9864 3.53408 10.8451 3.47555 10.6978 3.47555H10.1422V8.46222C10.1422 8.96222 9.53778 9.21222 9.18444 8.85888L8.47556 8.15L7.76667 8.85888C7.41333 9.21222 6.80889 8.96222 6.80889 8.46222V3.47555ZM9.03111 3.47555H7.92V7.13444L8.07889 6.97555C8.18411 6.87038 8.32679 6.8113 8.47556 6.8113C8.62432 6.8113 8.767 6.87038 8.87222 6.97555L9.03111 7.13444V3.47555Z" fill="white"/>
</g>
</g>
<defs>
<clipPath id="clip0_1_91">
<rect width="16" height="16" fill="white"/>
</clipPath>
<clipPath id="clip1_1_91">
<rect width="13.3333" height="13.3333" fill="white" transform="translate(1.25333 1.25336)"/>
</clipPath>
</defs>
</svg>
